<svg width="35" height="35" viewBox="0 0 35 35" fill="none" xmlns="http://www.w3.org/2000/svg">
<path d="M23.3332 30.625V27.7083C23.3332 26.1612 22.7186 24.6775 21.6246 23.5835C20.5307 22.4896 19.0469 21.875 17.4998 21.875H8.74984C7.20274 21.875 5.71901 22.4896 4.62505 23.5835C3.53109 24.6775 2.9165 26.1612 2.9165 27.7083V30.625" stroke="#B4BAC5" stroke-width="3" stroke-linecap="round" stroke-linejoin="round"/>
<path d="M23.3335 4.56152C24.5844 4.88581 25.6922 5.61628 26.483 6.63828C27.2739 7.66028 27.703 8.91595 27.703 10.2082C27.703 11.5004 27.2739 12.7561 26.483 13.7781C25.6922 14.8001 24.5844 15.5306 23.3335 15.8549" stroke="#B4BAC5" stroke-width="3" stroke-linecap="round" stroke-linejoin="round"/>
<path d="M32.0835 30.6249V27.7082C32.0825 26.4157 31.6523 25.1602 30.8605 24.1387C30.0686 23.1172 28.9599 22.3876 27.7085 22.0645" stroke="#B4BAC5" stroke-width="3" stroke-linecap="round" stroke-linejoin="round"/>
<path d="M13.1248 16.0417C16.3465 16.0417 18.9582 13.43 18.9582 10.2083C18.9582 6.98667 16.3465 4.375 13.1248 4.375C9.90318 4.375 7.2915 6.98667 7.2915 10.2083C7.2915 13.43 9.90318 16.0417 13.1248 16.0417Z" stroke="#B4BAC5" stroke-width="3" stroke-linecap="round" stroke-linejoin="round"/>
</svg>
