<svg width="26" height="26" viewBox="0 0 26 26" fill="none" xmlns="http://www.w3.org/2000/svg">
<path d="M15.8293 2.11035H6.33176C5.772 2.11035 5.23517 2.33271 4.83936 2.72852C4.44355 3.12433 4.22119 3.66116 4.22119 4.22092V21.1054C4.22119 21.6652 4.44355 22.202 4.83936 22.5978C5.23517 22.9936 5.772 23.216 6.33176 23.216H18.9951C19.5549 23.216 20.0917 22.9936 20.4875 22.5978C20.8834 22.202 21.1057 21.6652 21.1057 21.1054V7.38677L15.8293 2.11035Z" stroke="white" stroke-width="2" stroke-linecap="round" stroke-linejoin="round"/>
<path d="M14.7739 2.11035V6.33148C14.7739 6.89124 14.9963 7.42807 15.3921 7.82388C15.7879 8.21969 16.3247 8.44205 16.8845 8.44205H21.1056" stroke="white" stroke-width="2" stroke-linecap="round" stroke-linejoin="round"/>
<path d="M8.44238 12.6636H16.8846" stroke="white" stroke-width="2" stroke-linecap="round" stroke-linejoin="round"/>
<path d="M10.5527 11.6079V13.7185" stroke="white" stroke-width="2" stroke-linecap="round" stroke-linejoin="round"/>
<path d="M8.44238 17.9399H16.8846" stroke="white" stroke-width="2" stroke-linecap="round" stroke-linejoin="round"/>
<path d="M14.7739 16.8848V18.9953" stroke="white" stroke-width="2" stroke-linecap="round" stroke-linejoin="round"/>
</svg>
