<svg width="35" height="35" viewBox="0 0 35 35" fill="none" xmlns="http://www.w3.org/2000/svg">
<path d="M27.7083 10.2083V5.83333C27.7083 5.44656 27.5547 5.07563 27.2812 4.80214C27.0077 4.52865 26.6368 4.375 26.25 4.375H7.29167C6.51812 4.375 5.77625 4.68229 5.22927 5.22927C4.68229 5.77625 4.375 6.51812 4.375 7.29167C4.375 8.06521 4.68229 8.80708 5.22927 9.35406C5.77625 9.90104 6.51812 10.2083 7.29167 10.2083H29.1667C29.5534 10.2083 29.9244 10.362 30.1979 10.6355C30.4714 10.909 30.625 11.2799 30.625 11.6667V17.5M30.625 17.5H26.25C25.4765 17.5 24.7346 17.8073 24.1876 18.3543C23.6406 18.9013 23.3333 19.6431 23.3333 20.4167C23.3333 21.1902 23.6406 21.9321 24.1876 22.4791C24.7346 23.026 25.4765 23.3333 26.25 23.3333H30.625C31.0118 23.3333 31.3827 23.1797 31.6562 22.9062C31.9297 22.6327 32.0833 22.2618 32.0833 21.875V18.9583C32.0833 18.5716 31.9297 18.2006 31.6562 17.9271C31.3827 17.6536 31.0118 17.5 30.625 17.5Z" stroke="#B4BAC5" stroke-width="3" stroke-linecap="round" stroke-linejoin="round"/>
<path d="M4.375 7.29175V27.7084C4.375 28.482 4.68229 29.2238 5.22927 29.7708C5.77625 30.3178 6.51812 30.6251 7.29167 30.6251H29.1667C29.5534 30.6251 29.9244 30.4714 30.1979 30.1979C30.4714 29.9245 30.625 29.5535 30.625 29.1667V23.3334" stroke="#B4BAC5" stroke-width="3" stroke-linecap="round" stroke-linejoin="round"/>
</svg>
