<svg width="50" height="50" viewBox="0 0 50 50" fill="none" xmlns="http://www.w3.org/2000/svg">
<path d="M45.8332 25.0001H40.6665C39.756 24.9981 38.87 25.2945 38.1438 25.8438C37.4177 26.3931 36.8915 27.1651 36.6457 28.0417L31.7498 45.4584C31.7183 45.5666 31.6525 45.6616 31.5623 45.7293C31.4722 45.7969 31.3625 45.8334 31.2498 45.8334C31.1371 45.8334 31.0275 45.7969 30.9373 45.7293C30.8472 45.6616 30.7814 45.5666 30.7498 45.4584L19.2498 4.54175C19.2183 4.43356 19.1525 4.33853 19.0623 4.27091C18.9722 4.2033 18.8625 4.16675 18.7498 4.16675C18.6371 4.16675 18.5275 4.2033 18.4373 4.27091C18.3472 4.33853 18.2814 4.43356 18.2498 4.54175L13.354 21.9584C13.1091 22.8317 12.586 23.6012 11.8641 24.1501C11.1422 24.6991 10.2609 24.9975 9.354 25.0001H4.1665" stroke="#8238DD" stroke-width="4" stroke-linecap="round" stroke-linejoin="round"/>
</svg>
