<svg width="50" height="50" viewBox="0 0 50 50" fill="none" xmlns="http://www.w3.org/2000/svg">
<path d="M31.2502 4.16675H12.5002C11.3951 4.16675 10.3353 4.60573 9.55388 5.38714C8.77248 6.16854 8.3335 7.22835 8.3335 8.33342V41.6668C8.3335 42.7718 8.77248 43.8316 9.55388 44.613C10.3353 45.3944 11.3951 45.8334 12.5002 45.8334H37.5002C38.6052 45.8334 39.665 45.3944 40.4464 44.613C41.2278 43.8316 41.6668 42.7718 41.6668 41.6668V14.5834L31.2502 4.16675Z" stroke="#16A34A" stroke-width="4" stroke-linecap="round" stroke-linejoin="round"/>
<path d="M29.1665 4.16675V12.5001C29.1665 13.6051 29.6055 14.665 30.3869 15.4464C31.1683 16.2278 32.2281 16.6667 33.3332 16.6667H41.6665" stroke="#16A34A" stroke-width="4" stroke-linecap="round" stroke-linejoin="round"/>
<path d="M20.8332 18.75H16.6665" stroke="#16A34A" stroke-width="4" stroke-linecap="round" stroke-linejoin="round"/>
<path d="M33.3332 27.0833H16.6665" stroke="#16A34A" stroke-width="4" stroke-linecap="round" stroke-linejoin="round"/>
<path d="M33.3332 35.4167H16.6665" stroke="#16A34A" stroke-width="4" stroke-linecap="round" stroke-linejoin="round"/>
</svg>
