<svg width="35" height="35" viewBox="0 0 35 35" fill="none" xmlns="http://www.w3.org/2000/svg">
<path d="M14.9741 30.625C15.2301 31.0684 15.5983 31.4365 16.0417 31.6925C16.4851 31.9485 16.988 32.0832 17.5 32.0832C18.0119 32.0832 18.5149 31.9485 18.9582 31.6925C19.4016 31.4365 19.7698 31.0684 20.0258 30.625" stroke="black" stroke-width="2" stroke-linecap="round" stroke-linejoin="round"/>
<path d="M4.75699 22.3504C4.56648 22.5592 4.44076 22.8189 4.39512 23.0978C4.34947 23.3768 4.38588 23.663 4.4999 23.9216C4.61392 24.1803 4.80065 24.4002 5.03737 24.5547C5.27408 24.7091 5.55059 24.7915 5.83324 24.7917H29.1666C29.4492 24.7918 29.7258 24.7098 29.9626 24.5556C30.1995 24.4014 30.3865 24.1817 30.5008 23.9233C30.6151 23.6648 30.6519 23.3787 30.6066 23.0997C30.5613 22.8207 30.436 22.5609 30.2457 22.3519C28.3062 20.3525 26.2499 18.2277 26.2499 11.6667C26.2499 9.34603 25.328 7.12043 23.6871 5.47949C22.0462 3.83854 19.8206 2.91667 17.4999 2.91667C15.1793 2.91667 12.9537 3.83854 11.3127 5.47949C9.67178 7.12043 8.74991 9.34603 8.74991 11.6667C8.74991 18.2277 6.6922 20.3525 4.75699 22.3504Z" stroke="black" stroke-width="2" stroke-linecap="round" stroke-linejoin="round"/>
</svg>
